<svg xmlns="http://www.w3.org/2000/svg" width="150" height="50" viewBox="0,0,150,50"><rect width="100%" height="100%" fill="white"/><path fill="#5656db" d="M116.41 28.08L116.34 28.02L116.31 27.98Q114.98 27.98 114.11 28.94L114.16 28.99L114.04 28.86Q113.30 29.95 113.19 31.31L113.23 31.35L113.20 31.32Q112.92 32.70 113.79 33.42L113.83 33.45L113.78 33.41Q114.75 34.23 116.27 34.17L116.20 34.10L116.22 34.12Q117.94 34.07 118.62 33.39L118.65 33.42L118.51 33.28Q119.28 32.28 119.20 30.98L119.35 31.13L119.26 31.04Q119.21 29.74 118.44 28.88L118.32 28.76L118.40 28.85Q117.70 28.06 116.39 28.06ZM116.28 21.24L116.20 21.15L116.24 21.20Q115.26 21.14 114.30 21.49L114.38 21.57L114.40 21.58Q113.42 22.10 113.59 23.44L113.49 23.34L113.54 23.39Q113.94 26.10 116.34 26.10L116.39 26.16L116.36 26.12Q117.43 26.22 118.13 25.40L118.20 25.47L118.06 25.33Q118.80 24.55 118.83 23.43L118.81 23.41L118.91 23.51Q118.95 22.24 118.43 21.81L118.49 21.87L118.43 21.81Q117.15 21.12 116.22 21.18ZM116.18 36.01L116.06 35.89L114.03 36.03L113.87 35.87Q112.85 35.94 111.90 35.31L111.96 35.38L111.98 35.40Q110.86 34.44 110.97 32.40L111.01 32.44L111.03 32.47Q111.27 27.49 113.86 26.78L113.92 26.84L113.97 26.90Q112.32 26.22 111.37 22.38L111.25 22.26L111.33 22.35Q111.00 21.26 111.05 20.69L111.18 20.81L111.15 20.78Q111.27 19.16 113.91 19.14L114.10 19.32L113.95 19.17Q117.03 19.18 118.06 19.32L118.12 19.37L118.05 19.31Q120.76 19.65 121.08 21.09L121.07 21.08L121.12 21.13Q121.18 21.54 121.18 21.81L121.22 21.85L121.13 21.76Q121.31 22.43 121.18 22.87L121.09 22.78L121.12 22.81Q120.66 25.81 118.57 26.89L118.61 26.94L118.63 26.96Q121.00 27.40 121.35 31.18L121.33 31.15L121.31 31.13Q121.40 31.33 121.43 32.25L121.53 32.36L121.51 32.34Q121.50 34.23 120.36 34.99L120.40 35.03L120.33 34.96Q119.37 35.61 116.10 35.93ZM117.64 37.50L117.64 37.50L120.16 37.68L120.04 37.56Q121.27 37.62 122.36 37.10L122.52 37.27L122.51 37.26Q123.19 36.61 123.25 35.27L123.40 35.42L123.41 35.43Q123.34 34.54 123.06 33.16L123.00 33.10L122.97 33.07Q122.34 29.77 120.84 28.44L120.99 28.58L120.69 28.15L120.70 28.10L120.53 27.86L120.58 27.90Q121.76 26.93 122.41 23.97L122.29 23.85L122.44 24.00Q122.31 23.59 122.37 23.00L122.47 23.10L122.40 23.03Q122.42 22.51 122.37 22.07L122.42 22.12L122.37 22.08Q122.29 21.07 121.45 20.72L121.39 20.66L121.43 20.68L121.43 20.72L121.28 20.58Q121.10 20.07 120.25 19.50L120.31 19.55L120.32 19.54L120.37 19.58Q118.83 18.98 115.92 18.84L115.97 18.89L116.10 19.02Q114.91 18.85 113.93 18.94L114.00 19.01L113.93 18.94Q113.28 18.89 112.36 19.00L112.40 19.04L112.35 18.99Q111.04 19.34 110.88 20.51L110.97 20.60L110.90 20.53Q110.85 20.87 110.88 21.44L110.87 21.43L110.95 21.51Q110.90 21.75 111.30 23.44L111.44 23.57L111.33 23.46Q111.91 25.78 113.16 26.73L113.16 26.73L113.28 26.85L113.25 26.83Q111.33 27.82 110.95 31.52L110.81 31.37L110.87 31.43Q110.68 32.96 110.68 33.61L110.65 33.58L110.81 33.73Q110.79 34.94 111.63 35.59L111.57 35.54L111.55 35.51Q111.63 35.56 111.82 35.70L111.90 35.78L111.89 35.77Q112.71 37.49 117.80 37.66ZM117.54 29.73L117.43 29.62L117.57 29.76Q118.09 29.57 118.71 29.89L118.67 29.85L118.77 29.95Q118.95 30.57 118.92 30.95L118.97 31.00L118.92 30.95Q118.94 31.16 118.94 31.38L119.08 31.51L118.99 31.42Q119.11 33.23 117.48 33.83L117.36 33.71L117.43 33.77Q116.90 34.04 116.33 33.96L116.35 33.98L116.32 33.95Q115.45 33.94 114.63 33.62L114.57 33.56L114.75 33.73Q114.41 33.13 114.47 32.42L114.51 32.47L114.60 32.55Q114.55 31.25 115.41 30.38L115.40 30.38L115.49 30.47Q116.32 29.57 117.46 29.65ZM117.62 22.87L117.62 22.87L117.66 22.92Q118.16 22.76 118.54 22.87L118.63 22.96L118.65 23.55L118.66 23.56Q118.58 24.49 117.93 25.21L118.03 25.31L117.92 25.20Q117.35 26.00 116.37 25.86L116.22 25.72L116.38 25.88Q115.52 25.72 115.22 25.56L115.25 25.59L115.34 25.68Q115.22 25.40 115.14 24.91L115.20 24.97L115.26 25.03Q115.03 23.98 115.90 23.38L115.87 23.36L115.94 23.42Q116.60 22.83 117.61 22.86Z"/><path fill="#b8db51" d="M81.93 18.43L81.89 18.39L82.06 18.56Q83.26 21.88 83.67 25.58L83.70 25.61L83.68 25.59Q86.33 22.64 90.55 19.19L90.69 19.33L90.69 19.33Q92.89 19.03 94.76 18.45L94.74 18.43L90.05 22.44L90.06 22.46Q87.55 24.49 85.51 26.53L85.58 26.59L85.62 26.63Q91.37 33.23 94.99 36.60L94.82 36.43L94.94 36.56Q92.63 35.79 90.97 35.68L90.96 35.67L90.98 35.69Q86.97 31.96 83.90 27.80L83.84 27.74L83.86 27.76Q83.88 32.42 82.54 36.23L82.56 36.24L82.55 36.24Q82.33 36.21 81.98 36.34L82.04 36.40L82.06 36.56L82.07 36.58Q81.96 36.63 80.14 37.28L80.12 37.26L80.16 37.30Q82.13 32.47 81.89 27.14L82.00 27.26L81.96 27.21Q81.65 21.90 79.12 17.25L79.23 17.36L79.51 17.45L79.90 17.76L79.86 17.70L79.88 17.72Q80.41 18.00 81.99 18.49ZM82.16 18.25L82.14 18.23L82.20 18.29Q80.60 17.92 78.73 16.83L78.74 16.85L78.63 16.73Q81.72 21.97 81.72 28.36L81.75 28.39L81.76 28.40Q81.74 33.38 79.62 37.71L79.71 37.80L80.98 37.00L81.14 37.16Q80.86 37.88 80.37 38.81L80.27 38.72L80.35 38.79Q81.89 38.16 83.28 37.86L83.25 37.83L83.32 37.74L83.36 37.78Q83.46 37.66 83.87 37.55L84.03 37.71L83.93 37.62Q85.08 33.35 85.16 29.92L85.15 29.91L85.19 29.96Q86.59 31.66 87.90 32.99L88.01 33.10L88.03 33.13Q88.88 33.92 91.03 36.04L91.06 36.08L91.02 36.03L91.00 36.02Q91.67 36.54 93.00 37.69L92.96 37.64L92.98 37.66Q95.77 38.20 98.25 39.42L98.20 39.38L98.34 39.52Q91.74 33.43 87.28 28.13L87.12 27.97L87.12 27.97Q90.31 24.96 96.56 18.81L96.69 18.94L96.52 18.77Q94.84 19.73 93.40 20.00L93.39 20.00L93.33 19.93Q94.20 19.22 95.86 17.78L95.92 17.84L95.86 17.78Q92.89 18.76 90.50 18.89L90.57 18.96L90.54 18.93Q88.41 20.48 84.93 23.82L84.97 23.87L84.93 23.82Q84.60 21.92 84.19 20.09L84.19 20.09L84.32 20.22Q83.51 20.14 82.80 19.90L82.78 19.88L82.79 19.88Q82.49 19.21 82.08 18.18Z"/><path fill="#ea7070" d="M59.85 26.55L59.89 26.58L59.78 26.48Q60.33 26.46 61.34 26.35L61.43 26.44L61.39 26.40Q61.36 26.86 61.36 27.32L61.37 27.33L61.45 28.31L61.34 28.20Q60.81 28.27 60.21 28.32L60.20 28.31L60.26 28.37Q59.69 28.43 59.09 28.40L58.92 28.23L58.93 28.24Q57.04 32.79 54.59 36.08L54.54 36.03L54.43 35.92Q52.81 36.55 51.88 36.99L51.82 36.93L51.86 36.96Q54.67 32.76 56.84 28.27L56.98 28.41L55.09 28.40L54.97 28.27Q54.96 27.31 54.87 26.36L54.96 26.44L54.90 26.38Q56.40 26.64 57.87 26.64L57.82 26.58L59.13 23.90L59.10 23.87Q59.88 22.58 60.75 21.44L60.75 21.44L60.72 21.41Q59.70 21.61 58.56 21.61L58.46 21.51L58.48 21.53Q54.13 21.54 51.44 19.96L51.34 19.86L50.89 18.65L50.91 18.67Q50.68 18.08 50.40 17.45L50.52 17.57L50.51 17.56Q53.55 19.38 57.63 19.54L57.69 19.60L57.59 19.50Q61.20 19.60 64.87 18.19L64.98 18.29L64.89 18.20Q64.88 18.64 64.53 19.26L64.52 19.25L64.46 19.19Q61.89 22.61 59.85 26.55ZM65.54 20.11L65.55 20.12L66.35 18.77L66.29 18.71Q65.60 19.05 64.40 19.57L64.51 19.68L64.54 19.36L64.50 19.32Q64.57 19.19 64.65 19.11L64.74 19.20L64.81 19.27Q65.08 18.78 65.60 17.83L65.59 17.82L65.58 17.82Q61.74 19.41 57.63 19.25L57.69 19.30L57.55 19.16Q53.24 18.96 49.84 16.84L49.84 16.84L49.89 16.89Q50.59 18.19 51.19 20.09L51.26 20.16L51.27 20.17Q52.06 20.64 52.63 20.85L52.68 20.90L52.64 20.86Q52.81 21.17 53.14 22.50L52.97 22.33L52.98 22.34Q55.28 23.28 59.22 23.17L59.26 23.22L59.33 23.28Q59.02 23.60 57.61 26.29L57.58 26.27L57.59 26.27Q56.17 26.32 54.75 26.18L54.67 26.10L54.65 26.08Q54.84 26.81 54.84 27.44L54.84 27.43L54.80 28.63L56.08 28.71L55.92 29.55L56.04 29.67Q53.23 34.94 51.24 37.49L51.27 37.52L51.28 37.53Q52.40 36.96 53.57 36.61L53.58 36.62L53.59 36.63Q53.00 37.18 52.02 38.41L52.00 38.38L52.13 38.52Q54.26 37.60 56.00 37.44L55.99 37.43L56.06 37.50Q58.19 34.84 60.42 30.00L60.31 29.89L62.78 30.05L62.77 30.04Q62.76 29.43 62.76 28.78L62.84 28.85L62.85 27.59L62.73 27.47Q62.62 27.55 62.23 27.58L62.13 27.48L62.24 27.59Q61.77 27.54 61.58 27.54L61.67 27.63L61.57 27.54Q61.61 27.49 61.63 27.38L61.60 27.35L61.67 27.23L61.68 27.23Q63.45 23.54 65.65 20.22Z"/><path fill="#4a98e7" d="M29.87 35.69L29.74 35.57L28.48 35.69L28.37 35.58Q27.74 35.63 27.06 35.71L26.95 35.61L26.97 35.62Q27.44 31.26 27.44 28.40L27.46 28.42L27.47 28.43Q24.69 23.72 19.23 17.52L19.16 17.46L19.07 17.37Q20.41 18.13 22.80 18.70L22.78 18.68L22.88 18.78Q26.49 22.77 28.63 26.49L28.52 26.38L28.48 26.34Q30.72 22.47 33.85 18.88L33.81 18.84L33.93 18.95Q35.64 18.66 37.44 18.09L37.38 18.03L37.43 18.08Q33.06 22.38 29.58 28.39L29.59 28.41L29.63 28.45Q29.55 33.39 29.77 35.60ZM36.35 19.55L38.16 17.40L38.16 17.39Q35.94 18.22 33.71 18.54L33.72 18.56L33.77 18.60Q30.74 21.97 28.73 25.61L28.71 25.59L28.82 25.70Q27.28 23.07 24.99 20.30L24.90 20.21L25.02 20.32Q24.82 20.31 24.46 20.26L24.42 20.21L24.32 20.11Q23.98 19.69 22.89 18.49L22.77 18.37L22.74 18.35Q20.37 17.85 18.25 16.73L18.27 16.75L18.25 16.74Q23.81 22.84 27.21 28.50L27.17 28.46L27.26 28.55Q27.14 33.02 26.70 35.98L26.60 35.88L26.73 36.01Q27.30 36.04 28.33 35.96L28.25 35.87L28.21 36.56L28.31 36.66Q28.27 36.95 28.22 37.33L28.28 37.39L28.17 37.29Q30.63 37.22 31.88 37.36L32.04 37.52L32.07 37.55Q31.03 34.06 30.95 29.79L31.02 29.86L30.95 29.79Q34.13 23.81 38.81 18.56L38.88 18.63L36.19 19.39Z"/><path d="M13 40 C80 27,79 2,132 35" stroke="#ed7ced" fill="none"/><path d="M17 47 C64 15,67 39,143 30" stroke="#3ebbe4" fill="none"/></svg>